<?xml version="1.0" encoding="UTF-8" standalone="no"?>
<!-- Created with Inkscape (http://www.inkscape.org/) -->

<svg
   width="400"
   height="400"
   viewBox="0 0 105.83333 105.83333"
   version="1.1"
   id="svg5"
   inkscape:version="1.1 (c68e22c387, 2021-05-23)"
   sodipodi:docname="drawing.svg"
   xmlns:inkscape="http://www.inkscape.org/namespaces/inkscape"
   xmlns:sodipodi="http://sodipodi.sourceforge.net/DTD/sodipodi-0.dtd"
   xmlns="http://www.w3.org/2000/svg"
   xmlns:svg="http://www.w3.org/2000/svg">
  <sodipodi:namedview
     id="namedview7"
     pagecolor="#ffffff"
     bordercolor="#666666"
     borderopacity="1.0"
     inkscape:pageshadow="2"
     inkscape:pageopacity="0.0"
     inkscape:pagecheckerboard="0"
     inkscape:document-units="px"
     showgrid="false"
     inkscape:zoom="0.73539105"
     inkscape:cx="-244.08782"
     inkscape:cy="260.40567"
     inkscape:window-width="1920"
     inkscape:window-height="1017"
     inkscape:window-x="1912"
     inkscape:window-y="-8"
     inkscape:window-maximized="1"
     inkscape:current-layer="layer2" />
  <defs
     id="defs2">
    <filter
       inkscape:collect="always"
       style="color-interpolation-filters:sRGB"
       id="filter8531"
       x="-1.2671735"
       y="-1.6150846"
       width="3.534347"
       height="4.2301692">
      <feGaussianBlur
         inkscape:collect="always"
         stdDeviation="1.3432419"
         id="feGaussianBlur8533" />
    </filter>
    <mask
       maskUnits="userSpaceOnUse"
       id="mask21324">
      <path
         style="fill:#eda768;fill-opacity:1;stroke:none;stroke-width:0.264583px;stroke-linecap:butt;stroke-linejoin:miter;stroke-opacity:1"
         d="M 68.817104,7.6958132 C 64.816573,9.2388909 59.149637,15.709635 57.623195,15.010016 56.096753,14.310396 48.464543,15.264423 46.429286,13.229167 44.394029,11.19391 37.397834,2.9256809 32.882111,2.8620793 c -4.515725,-0.063602 -8.013822,2.098858 -8.141026,5.0881411 -0.127203,2.9892826 0.865952,21.1067436 3.537229,23.7780196 2.671273,2.671273 4.603797,2.680313 4.603797,2.680313 2.862078,-0.636018 1.908051,-1.780849 3.498096,-2.607672 1.590045,-0.826823 2.353265,-3.307292 4.64293,0 2.289661,3.307292 2.447734,3.737073 4.16498,2.274231 1.717244,-1.462839 3.6253,-1.833538 4.853686,-5.066315 1.099341,-2.893172 0.365972,-4.089522 0.696971,-6.849038 0.169508,-1.413182 -0.22374,-1.357264 -0.09182,-3.273781 0.111609,-1.621433 4.275878,-0.504606 4.272235,0.237103 -0.03121,6.353344 -1.196539,1.754392 -0.87312,4.278623 0.460179,3.591629 -1.956221,4.392266 -0.238974,6.872735 1.717246,2.480471 3.18009,6.042168 4.960937,4.77013 1.78085,-1.272034 3.307292,-3.752503 4.452125,-2.416865 1.144831,1.335635 2.734876,4.261318 2.162458,7.059795 -0.572415,2.798476 0.890426,3.816106 0.572418,4.579326 -0.31801,0.763222 -4.00691,6.169371 -5.088141,7.695813 -1.08123,1.526442 -4.452125,2.798477 -4.197717,4.833734 0.254407,2.035257 2.035257,1.208434 3.879707,1.144831 1.844452,-0.0636 5.914964,-3.879707 7.695813,-5.978565 1.78085,-2.098857 3.180088,-11.384716 2.035257,-14.5012 -1.144831,-3.116488 -0.381611,-5.278946 1.399238,-6.105769 1.78085,-0.826823 8.013822,-14.05599 6.868988,-18.857923 C 76.606903,8.4258139 72.810235,6.1555906 68.817104,7.6958132 Z"
         id="path21326"
         sodipodi:nodetypes="sssssscssssssssssssssssssscs" />
    </mask>
    <filter
       inkscape:collect="always"
       style="color-interpolation-filters:sRGB"
       id="filter8531-1-1"
       x="-0.065515955"
       y="-0.050063695"
       width="1.1310319"
       height="1.1001274">
      <feGaussianBlur
         inkscape:collect="always"
         stdDeviation="1.3432419"
         id="feGaussianBlur8533-3-2" />
    </filter>
  </defs>
  <g
     id="layer3"
     inkscape:label="Layer 3"
     style="display:inline;opacity:1"
     inkscape:groupmode="layer" />
  <g
     inkscape:groupmode="layer"
     id="layer2"
     inkscape:label="Layer 2"
     style="display:inline;opacity:1">
    <g
       id="g35162"
       transform="translate(-0.71957178,-2.1587153)">
      <path
         style="display:inline;opacity:1;fill:#c83737;fill-opacity:1;stroke:none;stroke-width:0.264583px;stroke-linecap:butt;stroke-linejoin:miter;stroke-opacity:1"
         d="M 28.911906,25.883862 20.151035,11.215008 32.174787,22.888231 Z"
         id="path34839" />
      <path
         style="display:inline;opacity:1;fill:#37c871;fill-opacity:1;stroke:none;stroke-width:0.264583px;stroke-linecap:butt;stroke-linejoin:miter;stroke-opacity:1"
         d="M 54.850181,87.649459 52.270773,104.53954 50.426879,87.883168 Z"
         id="path34839-3" />
      <path
         style="display:inline;opacity:1;fill:#0066ff;fill-opacity:1;stroke:none;stroke-width:0.264583px;stroke-linecap:butt;stroke-linejoin:miter;stroke-opacity:1"
         d="M 80.54184,25.708809 94.147003,15.37306 83.881306,28.618822 Z"
         id="path34839-4" />
      <circle
         style="display:inline;opacity:1;fill:#6f917c;fill-opacity:1;stroke:none;stroke-width:0.973323;stroke-opacity:1"
         id="path34597"
         cx="54.670177"
         cy="52.384258"
         r="38.703354" />
      <g
         id="g34573"
         transform="matrix(1.1102809,0,0,1.1233521,-0.76230084,16.415176)">
        <path
           style="display:inline;fill:#e5daca;fill-opacity:1;stroke:none;stroke-width:0.264583px;stroke-linecap:butt;stroke-linejoin:miter;stroke-opacity:1;filter:url(#filter8531-1-1)"
           d="m 33.587403,51.583228 -2.035257,-1.526442 1.144831,-2.925683 c 0,0 -2.92568,0.127203 -1.908053,-1.908054 1.01763,-2.035254 0.890426,-1.017627 1.01763,-3.052884 0.127203,-2.035254 -1.78085,-1.526442 -0.890426,-3.307291 0.890426,-1.78085 1.144833,-2.289662 2.16246,-4.070512 1.017627,-1.780849 2.416868,-2.289664 0.381611,-5.469752 -2.035257,-3.180088 -6.86899,-11.829928 -6.232972,-15.773237 0.636016,-3.9433092 0.381609,-8.3954328 3.180088,-9.2858578 2.798477,-0.890424 6.360176,1.78085 7.886618,4.0705133 1.526442,2.2896635 6.741787,8.3954325 6.741787,8.3954325 0,0 2.416866,-0.254407 4.833734,0 2.416865,0.254407 8.395433,1.144832 8.395433,1.144832 0,0 10.55789,-8.1410262 12.084333,-8.6498405 1.526444,-0.508814 3.561699,-0.763221 4.960937,0.5088143 1.399241,1.2720362 1.399241,8.6498402 0.127204,10.9395032 -1.272035,2.289664 -3.180088,6.105771 -4.197715,7.377805 -1.017628,1.272035 -4.70653,2.54407 -4.70653,3.561699 0,1.017628 1.017627,1.144831 1.144831,3.561699 0.127203,2.416866 1.017627,5.46975 0.508814,7.377803 -0.508814,1.908054 -2.289664,8.268229 -4.452125,9.540264 -2.162458,1.272037 -10.303483,6.614583 -11.193909,7.759417 -0.890424,1.144831 -3.816104,3.307292 -2.671273,5.088141 1.144831,1.780849 -5.088141,4.706529 -3.688903,3.052879 1.399238,-1.65364 4.197718,-3.561694 0.381611,-5.21534 -3.816106,-1.653645 -8.777044,-4.452122 -10.812301,-8.013821 -2.035254,-3.561699 -2.162458,-3.180088 -2.162458,-3.180088 z"
           id="path888-2-8-9"
           inkscape:label="path888-2" />
        <path
           style="fill:#f6b98a;fill-opacity:1;stroke:none;stroke-width:0.264583px;stroke-linecap:butt;stroke-linejoin:miter;stroke-opacity:1"
           d="m 33.459536,52.314866 -2.035257,-1.526442 1.144831,-2.925683 c 0,0 -2.92568,0.127203 -1.908053,-1.908054 1.01763,-2.035254 0.890426,-1.017627 1.01763,-3.052884 0.127203,-2.035254 -1.78085,-1.526442 -0.890426,-3.307291 0.890426,-1.78085 1.144833,-2.289662 2.16246,-4.070512 1.017627,-1.780849 2.416868,-2.289664 0.381611,-5.469752 -2.035257,-3.180088 -6.86899,-11.829928 -6.232972,-15.773237 0.636016,-3.943309 0.381609,-8.3954323 3.180088,-9.2858571 2.798477,-0.8904245 6.360176,1.7808495 7.886618,4.0705129 1.526442,2.2896632 6.741787,8.3954322 6.741787,8.3954322 0,0 2.416866,-0.254407 4.833734,0 2.416865,0.254407 8.395433,1.144832 8.395433,1.144832 0,0 10.55789,-8.141026 12.084333,-8.6498397 1.526444,-0.5088141 3.561699,-0.763221 4.960937,0.5088137 1.399241,1.272036 1.399241,8.64984 0.127204,10.939503 -1.272035,2.289664 -3.180088,6.105771 -4.197715,7.377805 -1.017628,1.272035 -4.70653,2.54407 -4.70653,3.561699 0,1.017628 1.017627,1.144831 1.144831,3.561699 0.127203,2.416866 1.017627,5.46975 0.508814,7.377803 -0.508814,1.908054 -2.289664,8.268229 -4.452125,9.540264 -2.162458,1.272037 -10.303483,6.614583 -11.193909,7.759417 -0.890424,1.144831 -3.816104,3.307292 -2.671273,5.088141 1.144831,1.780847 -5.088141,4.70653 -3.688903,3.052884 1.399238,-1.653646 4.197718,-3.561699 0.381611,-5.215345 C 42.618189,61.85513 37.657251,59.056653 35.621994,55.494954 33.58674,51.933255 33.459536,52.314866 33.459536,52.314866 Z"
           id="path888"
           mask="url(#mask21324)" />
        <path
           style="fill:#d2b59f;fill-opacity:1;stroke:none;stroke-width:0.264583px;stroke-linecap:butt;stroke-linejoin:miter;stroke-opacity:1"
           d="m 34.858775,26.619753 c -0.127204,-1.017628 0.508814,-2.798478 0.508814,-2.798478 l 0.890424,0.127204 c 0,0 -0.254408,-2.289663 0.763222,-1.78085 1.017627,0.508815 1.908051,0.508815 1.908051,-0.763221 0,-1.272035 0.508815,-1.272035 1.399241,-1.399238 0.890423,-0.127204 2.289662,-0.636018 1.526442,-2.671274 C 41.091747,15.298639 35.876402,7.5392245 34.34996,7.2848173 32.823518,7.0304103 30.025041,6.9032069 29.770633,8.9384631 c -0.254407,2.0352559 -0.381611,6.7417869 0.636019,9.9218749 1.017627,3.180088 3.561696,6.741787 4.452123,7.759415 z"
           id="path890" />
        <path
           style="fill:#d2b59f;fill-opacity:1;stroke:none;stroke-width:0.264583px;stroke-linecap:butt;stroke-linejoin:miter;stroke-opacity:1"
           d="m 62.589142,22.040426 c -0.254407,-2.416867 -0.636018,-3.943309 1.144831,-5.596955 1.78085,-1.653646 4.197718,-4.579327 6.48738,-4.579327 2.289664,0 3.561699,-0.636017 3.94331,1.780849 0.381611,2.416867 0.127204,6.614584 -2.035257,10.049079 -2.162458,3.434495 -5.215345,5.342549 -6.360176,4.579326 -1.144831,-0.763219 -3.052884,-4.324919 -3.180088,-6.232972 z"
           id="path892" />
        <path
           style="fill:#b87567;fill-opacity:0.535047;stroke:none;stroke-width:0.264583px;stroke-linecap:butt;stroke-linejoin:miter;stroke-opacity:1"
           d="m 63.479568,23.694072 c 2.416866,-2.416867 3.943308,-2.671274 3.816104,-1.272035 -0.127204,1.399238 0.890426,3.688902 -0.127204,4.70653 -1.017627,1.017628 -2.416865,1.399239 -3.6889,-3.434495 z"
           id="path894" />
        <path
           style="display:inline;fill:#b87567;fill-opacity:0.535047;stroke:none;stroke-width:0.339739px;stroke-linecap:butt;stroke-linejoin:miter;stroke-opacity:1"
           d="m 33.275941,15.373036 c -1.736456,-6.1154345 3.126973,-0.462911 4.468147,1.548513 0.872621,1.308712 1.533482,1.782135 1.341197,3.656415 -0.111924,1.09096 -0.07167,2.441769 -2.441394,1.487168 -0.559324,-0.225314 -0.279071,1.536348 -0.628496,1.439015 -0.619836,-0.172656 -1.719212,-2.372052 -2.2897,-4.623199 z"
           id="path894-7"
           sodipodi:nodetypes="csssscc" />
        <path
           style="fill:#4e2506;fill-opacity:1;stroke:none;stroke-width:0.264583px;stroke-linecap:butt;stroke-linejoin:miter;stroke-opacity:1"
           d="m 47.29383,37.093681 c 1.367621,-1.575509 1.820428,-1.375536 3.598159,-1.270199 1.777731,0.105338 2.579683,0.23457 3.39331,1.557045 0.813623,1.322476 -0.900794,2.750677 -1.574309,3.923193 -0.307806,0.535859 -1.4602,0.577763 -2.814968,0.478728 -0.829826,-0.06066 -1.641986,-0.679327 -2.434093,-2.572402 -0.395859,-0.94607 -0.168094,-2.116364 -0.168094,-2.116364 z"
           id="path896"
           sodipodi:nodetypes="cssssscc" />
        <path
           style="fill:#151515;fill-opacity:1;stroke:none;stroke-width:0.222341px;stroke-linecap:butt;stroke-linejoin:miter;stroke-opacity:1"
           d="m 41.50138,29.417193 c 0.976024,1.475108 2.65695,1.580473 3.578749,1.159015 0.921799,-0.421461 1.464032,-1.053652 1.247138,-1.633159 -0.216892,-0.579507 -0.759128,-2.107298 -2.06049,-2.265346 -1.301363,-0.158047 -2.440056,0.579508 -2.711173,1.264381 -0.271118,0.684872 -0.05422,1.475109 -0.05422,1.475109 z"
           id="path898" />
        <path
           style="fill:#151515;fill-opacity:1;stroke:none;stroke-width:0.264583px;stroke-linecap:butt;stroke-linejoin:miter;stroke-opacity:1"
           d="m 56.992186,31.962301 c -2.035254,-1.335638 -1.590043,-1.908053 -1.335635,-2.671273 0.254407,-0.763222 1.144831,-1.462841 1.971654,-1.335638 0.826823,0.127204 1.908053,0.826823 2.16246,1.590043 0.254408,0.763222 0.572416,2.226064 -0.508814,2.607672 -1.081231,0.381612 -1.017628,0.254408 -2.289665,-0.190804 z"
           id="path900" />
        <path
           style="fill:none;stroke:#000000;stroke-width:0.264583px;stroke-linecap:butt;stroke-linejoin:miter;stroke-opacity:1"
           d="m 42.618189,41.756972 c 1.144831,1.272035 1.08123,2.416868 2.607672,2.035257 1.526442,-0.381611 2.098858,-1.01763 3.6253,-0.954026 1.526442,0.0636 2.86208,0.127203 3.625302,0.508815 0.76322,0.381608 0.445212,0.890423 1.653646,1.462838 1.208431,0.572416 1.272034,0.572416 2.353265,-0.381611 1.08123,-0.954026 1.335635,-1.780849 1.335635,-1.780849"
           id="path902" />
        <path
           style="fill:#d9c9b6;fill-opacity:1;stroke:none;stroke-width:0.264583px;stroke-linecap:butt;stroke-linejoin:miter;stroke-opacity:1"
           d="m 46.243488,44.428245 c 1.653646,1.208434 2.035257,1.590046 3.498099,1.844453 1.462839,0.254407 2.098857,0.381611 3.180088,-0.381611 1.08123,-0.763223 1.653646,-0.954027 1.144831,-0.0636 -0.508813,0.890424 -0.954027,2.162458 -2.54407,2.480469 -1.590045,0.318008 -4.960937,0.190804 -5.660556,-1.01763 -0.699619,-1.208434 -2.035257,-3.434495 0.381608,-2.86208 z"
           id="path904" />
        <path
           id="path10045"
           style="fill:#ebe1e1;stroke-width:0.979475"
           d="m 45.538863,29.129605 c -10e-7,0.421516 -0.723317,-0.445212 -1.208435,-1.08123 -0.255634,-0.335152 -1.335637,-0.150901 -1.335637,-0.572416 0,-0.421515 1.312722,-0.18428 1.653646,0.0636 0.612321,0.445212 0.890425,1.168528 0.890426,1.590044 z"
           sodipodi:nodetypes="sssss" />
        <path
           id="path10045-0"
           style="display:inline;fill:#ebe1e1;stroke-width:0.979475"
           d="m 59.531249,30.397944 c -1e-6,0.421516 -0.723317,-0.445212 -1.208435,-1.08123 -0.255634,-0.335152 -1.335637,-0.150901 -1.335637,-0.572416 0,-0.421515 1.312722,-0.18428 1.653646,0.0636 0.612321,0.445212 0.890425,1.168528 0.890426,1.590044 z"
           sodipodi:nodetypes="sssss" />
        <path
           id="path10045-3"
           style="display:inline;fill:#ebe1e1;stroke-width:0.979475;filter:url(#filter8531)"
           d="m 59.593187,30.332977 c -10e-7,0.421516 -0.723317,-0.445212 -1.208435,-1.08123 -0.255634,-0.335152 -1.335637,-0.150901 -1.335637,-0.572416 0,-0.421515 1.312722,-0.18428 1.653646,0.0636 0.612321,0.445212 0.890425,1.168528 0.890426,1.590044 z"
           sodipodi:nodetypes="sssss" />
      </g>
    </g>
  </g>
</svg>
